<svg width="32" height="32" viewBox="0 0 32 32" fill="none" xmlns="http://www.w3.org/2000/svg">
<path d="M12.7333 20.2L24.0333 8.9C24.3 8.63333 24.6111 8.5 24.9666 8.5C25.3222 8.5 25.6333 8.63333 25.9 8.9C26.1666 9.16667 26.3 9.48356 26.3 9.85067C26.3 10.2178 26.1666 10.5342 25.9 10.8L13.6666 23.0667C13.4 23.3333 13.0888 23.4667 12.7333 23.4667C12.3777 23.4667 12.0666 23.3333 11.8 23.0667L6.06662 17.3333C5.79996 17.0667 5.67196 16.7502 5.68262 16.384C5.69329 16.0178 5.8324 15.7009 6.09996 15.4333C6.36751 15.1658 6.6844 15.0324 7.05062 15.0333C7.41684 15.0342 7.73329 15.1676 7.99996 15.4333L12.7333 20.2Z" fill="white"/>
</svg>
