<svg width="24" height="24" viewBox="0 0 24 24" fill="none" xmlns="http://www.w3.org/2000/svg">
<path d="M7.34761 8.70002L8.29681 2.40002H3.36001L1.29721 7.80002C1.23321 7.99202 1.20081 8.19202 1.20001 8.40002C1.20001 9.72482 2.58001 10.8 4.28521 10.8C5.85721 10.8 7.15681 9.88322 7.34761 8.70002ZM12 10.8C13.704 10.8 15.0852 9.72482 15.0852 8.40002C15.0844 8.35042 15.0824 8.30202 15.0792 8.25482L14.4684 2.40002H9.53161L8.91961 8.25002L8.91481 8.40002C8.91481 9.72482 10.296 10.8 12 10.8ZM18 12.0552V16.8H6.00001V12.0624C5.47441 12.252 4.89601 12.36 4.28521 12.36C4.05121 12.36 3.82441 12.3324 3.60001 12.3012V19.92C3.60001 20.844 4.35481 21.6 5.27761 21.6H18.72C19.644 21.6 20.4 20.8428 20.4 19.92V12.3024C20.1733 12.3384 19.9443 12.358 19.7148 12.3612C19.1298 12.3595 18.5495 12.256 18 12.0552ZM22.704 7.80002L20.6388 2.40002H15.7032L16.6512 8.69042C16.836 9.87842 18.1356 10.8 19.7148 10.8C21.4188 10.8 22.8 9.72482 22.8 8.40002C22.7992 8.19202 22.7672 7.99202 22.704 7.80002Z" fill="black"/>
</svg>
