<svg width="24" height="24" viewBox="0 0 24 24" fill="none" xmlns="http://www.w3.org/2000/svg">
<path d="M11 17.243L7.04998 13.293C6.95773 13.1975 6.84739 13.1213 6.72538 13.0689C6.60338 13.0165 6.47216 12.9889 6.33938 12.9877C6.2066 12.9866 6.07492 13.0119 5.95202 13.0622C5.82913 13.1125 5.71747 13.1867 5.62358 13.2806C5.52969 13.3745 5.45544 13.4861 5.40516 13.609C5.35487 13.7319 5.32957 13.8636 5.33073 13.9964C5.33188 14.1292 5.35947 14.2604 5.41188 14.3824C5.46428 14.5044 5.54047 14.6148 5.63598 14.707L11.293 20.364C11.4805 20.5515 11.7348 20.6568 12 20.6568C12.2651 20.6568 12.5194 20.5515 12.707 20.364L18.364 14.707C18.5461 14.5184 18.6469 14.2658 18.6447 14.0036C18.6424 13.7414 18.5372 13.4906 18.3518 13.3052C18.1664 13.1198 17.9156 13.0146 17.6534 13.0123C17.3912 13.01 17.1386 13.1108 16.95 13.293L13 17.243V4C13 3.73478 12.8946 3.48043 12.7071 3.29289C12.5195 3.10536 12.2652 3 12 3C11.7348 3 11.4804 3.10536 11.2929 3.29289C11.1053 3.48043 11 3.73478 11 4V17.243Z" fill="black"/>
</svg>
