<svg width="24" height="24" viewBox="0 0 24 24" fill="none" xmlns="http://www.w3.org/2000/svg">
<path d="M14 16H19V21M10 8H5V3M19.418 9.003C18.8573 7.61519 17.9185 6.41251 16.7084 5.53166C15.4982 4.65082 14.0652 4.12714 12.5723 4.02016C11.0793 3.91318 9.58627 4.22718 8.26288 4.92648C6.93949 5.62577 5.83883 6.68231 5.086 7.976M4.582 14.997C5.1428 16.3846 6.08157 17.587 7.29163 18.4676C8.50169 19.3483 9.93452 19.8718 11.4273 19.9788C12.9201 20.0858 14.4129 19.7719 15.7362 19.0728C17.0594 18.3737 18.1601 17.3174 18.913 16.024" stroke="black" stroke-width="2" stroke-linecap="round" stroke-linejoin="round"/>
</svg>
