<svg width="24" height="25" viewBox="0 0 24 25" fill="none" xmlns="http://www.w3.org/2000/svg">
<path d="M16 5.06714H22M19 2.06714V8.06714M21 11.5671V19.0671C21 19.5976 20.7893 20.1063 20.4142 20.4814C20.0391 20.8564 19.5304 21.0671 19 21.0671H5C4.46957 21.0671 3.96086 20.8564 3.58579 20.4814C3.21071 20.1063 3 19.5976 3 19.0671V5.06714C3 4.53671 3.21071 4.028 3.58579 3.65293C3.96086 3.27785 4.46957 3.06714 5 3.06714H12.5" stroke="black" stroke-width="2" stroke-linecap="round" stroke-linejoin="round"/>
<path d="M21 15.0671L17.914 11.9811C17.5389 11.6061 17.0303 11.3955 16.5 11.3955C15.9697 11.3955 15.4611 11.6061 15.086 11.9811L6 21.0671" stroke="black" stroke-width="2" stroke-linecap="round" stroke-linejoin="round"/>
<path d="M9 11.0671C10.1046 11.0671 11 10.1717 11 9.06714C11 7.96257 10.1046 7.06714 9 7.06714C7.89543 7.06714 7 7.96257 7 9.06714C7 10.1717 7.89543 11.0671 9 11.0671Z" stroke="black" stroke-width="2" stroke-linecap="round" stroke-linejoin="round"/>
</svg>
