<svg width="24" height="25" viewBox="0 0 24 25" fill="none" xmlns="http://www.w3.org/2000/svg">
<path d="M17.5 12.5671C17.1022 12.5671 16.7206 12.4091 16.4393 12.1278C16.158 11.8465 16 11.465 16 11.0671C16 10.6693 16.158 10.2878 16.4393 10.0065C16.7206 9.72517 17.1022 9.56714 17.5 9.56714C17.8978 9.56714 18.2794 9.72517 18.5607 10.0065C18.842 10.2878 19 10.6693 19 11.0671C19 11.465 18.842 11.8465 18.5607 12.1278C18.2794 12.4091 17.8978 12.5671 17.5 12.5671ZM14.5 8.56714C14.1022 8.56714 13.7206 8.4091 13.4393 8.1278C13.158 7.84649 13 7.46496 13 7.06714C13 6.66931 13.158 6.28778 13.4393 6.00648C13.7206 5.72517 14.1022 5.56714 14.5 5.56714C14.8978 5.56714 15.2794 5.72517 15.5607 6.00648C15.842 6.28778 16 6.66931 16 7.06714C16 7.46496 15.842 7.84649 15.5607 8.1278C15.2794 8.4091 14.8978 8.56714 14.5 8.56714ZM9.5 8.56714C9.10218 8.56714 8.72064 8.4091 8.43934 8.1278C8.15804 7.84649 8 7.46496 8 7.06714C8 6.66931 8.15804 6.28778 8.43934 6.00648C8.72064 5.72517 9.10218 5.56714 9.5 5.56714C9.89782 5.56714 10.2794 5.72517 10.5607 6.00648C10.842 6.28778 11 6.66931 11 7.06714C11 7.46496 10.842 7.84649 10.5607 8.1278C10.2794 8.4091 9.89782 8.56714 9.5 8.56714ZM6.5 12.5671C6.10218 12.5671 5.72064 12.4091 5.43934 12.1278C5.15804 11.8465 5 11.465 5 11.0671C5 10.6693 5.15804 10.2878 5.43934 10.0065C5.72064 9.72517 6.10218 9.56714 6.5 9.56714C6.89782 9.56714 7.27936 9.72517 7.56066 10.0065C7.84196 10.2878 8 10.6693 8 11.0671C8 11.465 7.84196 11.8465 7.56066 12.1278C7.27936 12.4091 6.89782 12.5671 6.5 12.5671ZM12 3.56714C9.61305 3.56714 7.32387 4.51535 5.63604 6.20318C3.94821 7.891 3 10.1802 3 12.5671C3 14.9541 3.94821 17.2433 5.63604 18.9311C7.32387 20.6189 9.61305 21.5671 12 21.5671C12.3978 21.5671 12.7794 21.4091 13.0607 21.1278C13.342 20.8465 13.5 20.465 13.5 20.0671C13.5 19.6771 13.35 19.3271 13.11 19.0671C12.88 18.7971 12.73 18.4471 12.73 18.0671C12.73 17.6693 12.888 17.2878 13.1693 17.0065C13.4506 16.7252 13.8322 16.5671 14.23 16.5671H16C17.3261 16.5671 18.5979 16.0404 19.5355 15.1027C20.4732 14.165 21 12.8932 21 11.5671C21 7.14714 16.97 3.56714 12 3.56714Z" fill="black"/>
</svg>
