<svg width="60" height="61" viewBox="0 0 60 61" fill="none" xmlns="http://www.w3.org/2000/svg">
<path d="M54.8825 30.0453C54.8825 31.5228 54.0175 32.8553 52.785 34.0703C52.0475 34.7953 51.1875 35.4903 50.43 36.1953C49.825 36.7578 49.28 37.3103 49.025 37.9253C48.7575 38.5678 48.74 39.3653 48.7625 40.2078C48.79 41.2478 48.9025 42.3453 48.91 43.3703C48.925 45.0978 48.6025 46.6303 47.595 47.6403C46.585 48.6478 45.0525 48.9703 43.325 48.9553C42.3 48.9453 41.2025 48.8353 40.165 48.8078C39.3225 48.7853 38.5225 48.8028 37.88 49.0703C37.265 49.3253 36.7125 49.8703 36.15 50.4753C35.445 51.2328 34.75 52.0928 34.025 52.8278C32.81 54.0628 31.4775 54.9278 30 54.9278C28.5225 54.9278 27.19 54.0628 25.975 52.8278C25.25 52.0928 24.555 51.2328 23.85 50.4753C23.2875 49.8703 22.7325 49.3253 22.12 49.0703C21.4775 48.8028 20.6775 48.7853 19.8375 48.8078C18.7975 48.8353 17.7 48.9453 16.675 48.9553C14.9475 48.9703 13.4125 48.6478 12.405 47.6403C11.395 46.6303 11.075 45.0978 11.09 43.3703C11.0975 42.3453 11.21 41.2478 11.2375 40.2078C11.26 39.3653 11.2425 38.5678 10.975 37.9228C10.72 37.3103 10.175 36.7578 9.57 36.1953C8.815 35.4903 7.955 34.7953 7.2175 34.0703C5.985 32.8553 5.1175 31.5228 5.1175 30.0453C5.1175 28.5678 5.985 27.2353 7.2175 26.0203C7.955 25.2953 8.815 24.6003 9.57 23.8953C10.175 23.3328 10.72 22.7803 10.975 22.1678C11.2425 21.5228 11.26 20.7253 11.2375 19.8828C11.21 18.8428 11.0975 17.7453 11.09 16.7203C11.075 14.9928 11.395 13.4603 12.405 12.4503C13.4125 11.4428 14.9475 11.1203 16.675 11.1353C17.7 11.1453 18.7975 11.2553 19.8375 11.2828C20.6775 11.3053 21.4775 11.2878 22.12 11.0203C22.7325 10.7653 23.2875 10.2203 23.85 9.61534C24.555 8.85784 25.25 7.99784 25.975 7.26284C27.19 6.02784 28.5225 5.16284 30 5.16284C31.4775 5.16284 32.81 6.02784 34.025 7.26284C34.75 7.99784 35.445 8.85784 36.15 9.61534C36.7125 10.2203 37.265 10.7653 37.88 11.0203C38.5225 11.2878 39.3225 11.3053 40.165 11.2828C41.2025 11.2553 42.3 11.1453 43.325 11.1353C45.0525 11.1203 46.585 11.4428 47.595 12.4503C48.6025 13.4603 48.925 14.9928 48.91 16.7203C48.9025 17.7453 48.79 18.8428 48.7625 19.8828C48.74 20.7253 48.7575 21.5228 49.025 22.1653C49.28 22.7803 49.825 23.3328 50.43 23.8953C51.1875 24.6003 52.0475 25.2953 52.785 26.0203C54.0175 27.2353 54.8825 28.5678 54.8825 30.0453ZM52.3825 30.0453C52.3825 29.5753 52.1625 29.1578 51.8675 28.7503C51.4575 28.1853 50.8975 27.6578 50.3125 27.1353C48.855 25.8328 47.3 24.5353 46.715 23.1253C46.11 21.6628 46.2725 19.6278 46.375 17.6803C46.4175 16.8928 46.4425 16.1253 46.3375 15.4428C46.265 14.9653 46.1375 14.5303 45.8275 14.2203C45.515 13.9078 45.08 13.7803 44.6025 13.7078C43.92 13.6028 43.1525 13.6278 42.365 13.6703C40.4175 13.7728 38.3825 13.9353 36.9225 13.3303C35.51 12.7453 34.2125 11.1928 32.91 9.73284C32.3875 9.14784 31.86 8.58784 31.295 8.17784C30.8875 7.88284 30.47 7.66284 30 7.66284C29.5325 7.66284 29.1125 7.88284 28.705 8.17784C28.14 8.58784 27.6125 9.14784 27.09 9.73284C25.7875 11.1928 24.49 12.7453 23.0775 13.3303C21.6175 13.9353 19.5825 13.7728 17.635 13.6703C16.8475 13.6278 16.08 13.6028 15.3975 13.7078C14.9175 13.7803 14.485 13.9078 14.1725 14.2203C13.86 14.5328 13.735 14.9653 13.6625 15.4428C13.5575 16.1253 13.5825 16.8928 13.6225 17.6803C13.7275 19.6278 13.89 21.6628 13.285 23.1228C12.7 24.5353 11.1475 25.8328 9.6875 27.1353C9.1025 27.6578 8.5425 28.1853 8.1325 28.7503C7.8375 29.1578 7.6175 29.5753 7.6175 30.0453C7.6175 30.5153 7.8375 30.9328 8.1325 31.3403C8.5425 31.9053 9.1025 32.4328 9.6875 32.9553C11.1475 34.2578 12.7 35.5553 13.285 36.9678C13.89 38.4278 13.7275 40.4628 13.6225 42.4103C13.5825 43.1978 13.5575 43.9653 13.6625 44.6478C13.735 45.1253 13.86 45.5603 14.1725 45.8703C14.485 46.1828 14.9175 46.3103 15.3975 46.3828C16.08 46.4878 16.8475 46.4628 17.635 46.4203C19.5825 46.3178 21.6175 46.1553 23.0775 46.7603C24.49 47.3453 25.7875 48.8978 27.09 50.3578C27.6125 50.9428 28.14 51.5028 28.705 51.9128C29.1125 52.2078 29.5325 52.4278 30 52.4278C30.47 52.4278 30.8875 52.2078 31.295 51.9128C31.86 51.5028 32.3875 50.9428 32.91 50.3578C34.2125 48.8978 35.51 47.3453 36.9225 46.7603C38.3825 46.1553 40.4175 46.3178 42.365 46.4203C43.1525 46.4628 43.92 46.4878 44.6025 46.3828C45.08 46.3103 45.515 46.1828 45.8275 45.8703C46.1375 45.5603 46.265 45.1253 46.3375 44.6478C46.4425 43.9653 46.4175 43.1978 46.375 42.4103C46.2725 40.4628 46.11 38.4278 46.715 36.9653C47.3 35.5553 48.855 34.2578 50.3125 32.9553C50.8975 32.4328 51.4575 31.9053 51.8675 31.3403C52.1625 30.9328 52.3825 30.5153 52.3825 30.0453ZM26.055 25.6403C25.8193 25.8759 25.5395 26.0627 25.2315 26.1901C24.9236 26.3176 24.5936 26.3831 24.2604 26.383C23.9271 26.3829 23.5972 26.3171 23.2893 26.1895C22.9815 26.0618 22.7018 25.8748 22.4662 25.6391C22.2307 25.4034 22.0439 25.1236 21.9164 24.8156C21.789 24.5077 21.7235 24.1777 21.7236 23.8445C21.7237 23.5112 21.7895 23.1812 21.9171 22.8734C22.0448 22.5656 22.2318 22.2859 22.4675 22.0503C22.9436 21.5746 23.5891 21.3075 24.2621 21.3077C24.9352 21.3079 25.5805 21.5755 26.0562 22.0516C26.532 22.5277 26.7991 23.1732 26.7989 23.8462C26.7986 24.5192 26.5311 25.1646 26.055 25.6403ZM37.2325 21.0453C37.4683 20.8176 37.784 20.6917 38.1118 20.6945C38.4395 20.6973 38.753 20.8288 38.9848 21.0606C39.2165 21.2923 39.348 21.6058 39.3508 21.9336C39.3537 22.2613 39.2277 22.5771 39 22.8128L22.7675 39.0453C22.5317 39.273 22.216 39.399 21.8882 39.3962C21.5605 39.3933 21.247 39.2619 21.0152 39.0301C20.7835 38.7984 20.652 38.4848 20.6492 38.1571C20.6463 37.8293 20.7723 37.5136 21 37.2778L37.2325 21.0453ZM33.945 34.4528C34.1807 34.2173 34.4605 34.0305 34.7685 33.903C35.0764 33.7756 35.4064 33.7101 35.7396 33.7102C36.0729 33.7103 36.4028 33.7761 36.7107 33.9037C37.0185 34.0314 37.2982 34.2184 37.5338 34.4541C37.7693 34.6898 37.9561 34.9696 38.0836 35.2775C38.211 35.5855 38.2765 35.9155 38.2764 36.2487C38.2763 36.582 38.2105 36.9119 38.0829 37.2198C37.9552 37.5276 37.7682 37.8073 37.5325 38.0428C37.0564 38.5186 36.4109 38.7857 35.7379 38.7855C35.0648 38.7852 34.4195 38.5177 33.9438 38.0416C33.468 37.5655 33.2009 36.92 33.2011 36.247C33.2014 35.5739 33.4689 34.9286 33.945 34.4528Z" fill="#9E340E"/>
</svg>
