<svg width="80" height="80" viewBox="0 0 80 80" fill="none" xmlns="http://www.w3.org/2000/svg">
<rect x="2" y="2" width="76" height="76" rx="38" stroke="#089370" stroke-width="4"/>
<path d="M40.0001 16.6667C40.8841 16.6667 41.732 17.0179 42.3571 17.643C42.9822 18.2681 43.3334 19.116 43.3334 20V36.6667H60.0001C60.8841 36.6667 61.732 37.0179 62.3571 37.643C62.9822 38.2681 63.3334 39.1159 63.3334 40C63.3334 40.8841 62.9822 41.7319 62.3571 42.357C61.732 42.9821 60.8841 43.3333 60.0001 43.3333H43.3334V60C43.3334 60.8841 42.9822 61.7319 42.3571 62.357C41.732 62.9822 40.8841 63.3333 40.0001 63.3333C39.116 63.3333 38.2682 62.9822 37.6431 62.357C37.0179 61.7319 36.6667 60.8841 36.6667 60V43.3333H20.0001C19.116 43.3333 18.2682 42.9821 17.6431 42.357C17.0179 41.7319 16.6667 40.8841 16.6667 40C16.6667 39.1159 17.0179 38.2681 17.6431 37.643C18.2682 37.0179 19.116 36.6667 20.0001 36.6667H36.6667V20C36.6667 19.116 37.0179 18.2681 37.6431 17.643C38.2682 17.0179 39.116 16.6667 40.0001 16.6667Z" fill="#089370"/>
</svg>
