<svg width="32" height="32" viewBox="0 0 32 32" fill="none" xmlns="http://www.w3.org/2000/svg">
<path d="M28.3334 16.0002H11.86H28.3334ZM6.04535 16.0002H3.66669H6.04535ZM28.3334 24.8095H20.6694H28.3334ZM14.8547 24.8095H3.66669H14.8547ZM28.3334 7.19085H24.1934H28.3334ZM18.3787 7.19085H3.66669H18.3787ZM21.2854 10.0975C21.6671 10.0975 22.045 10.0223 22.3977 9.87626C22.7503 9.73018 23.0708 9.51608 23.3407 9.24617C23.6106 8.97626 23.8247 8.65583 23.9708 8.30318C24.1168 7.95053 24.192 7.57256 24.192 7.19085C24.192 6.80914 24.1168 6.43117 23.9708 6.07851C23.8247 5.72586 23.6106 5.40543 23.3407 5.13552C23.0708 4.86561 22.7503 4.65151 22.3977 4.50544C22.045 4.35936 21.6671 4.28418 21.2854 4.28418C20.5145 4.28418 19.7751 4.59042 19.23 5.13552C18.6849 5.68063 18.3787 6.41995 18.3787 7.19085C18.3787 7.96174 18.6849 8.70106 19.23 9.24617C19.7751 9.79128 20.5145 10.0975 21.2854 10.0975ZM8.95202 18.9068C9.72292 18.9068 10.4622 18.6006 11.0073 18.0555C11.5525 17.5104 11.8587 16.7711 11.8587 16.0002C11.8587 15.2293 11.5525 14.49 11.0073 13.9449C10.4622 13.3998 9.72292 13.0935 8.95202 13.0935C8.18112 13.0935 7.4418 13.3998 6.8967 13.9449C6.35159 14.49 6.04535 15.2293 6.04535 16.0002C6.04535 16.7711 6.35159 17.5104 6.8967 18.0555C7.4418 18.6006 8.18112 18.9068 8.95202 18.9068ZM17.7614 27.7175C18.5324 27.7175 19.2719 27.4112 19.8172 26.866C20.3624 26.3207 20.6694 25.5806 20.6694 24.8095C20.6694 24.0384 20.3624 23.2996 19.8172 22.7544C19.2719 22.2092 18.5324 21.9028 17.7614 21.9028C16.9905 21.9028 16.2511 22.2091 15.706 22.7542C15.1609 23.2993 14.8547 24.0386 14.8547 24.8095C14.8547 25.5804 15.1609 26.3197 15.706 26.8648C16.2511 27.4099 16.9905 27.7175 17.7614 27.7175Z" fill="white"/>
<path d="M28.3334 16.0002H11.86M6.04535 16.0002H3.66669M6.04535 16.0002C6.04535 15.2293 6.35159 14.49 6.8967 13.9449C7.4418 13.3998 8.18112 13.0935 8.95202 13.0935C9.72292 13.0935 10.4622 13.3998 11.0073 13.9449C11.5525 14.49 11.8587 15.2293 11.8587 16.0002C11.8587 16.7711 11.5525 17.5104 11.0073 18.0555C10.4622 18.6006 9.72292 18.9068 8.95202 18.9068C8.18112 18.9068 7.4418 18.6006 6.8967 18.0555C6.35159 17.5104 6.04535 16.7711 6.04535 16.0002ZM28.3334 24.8095H20.6694M20.6694 24.8095C20.6694 25.5806 20.3624 26.3207 19.8171 26.866C19.2719 27.4112 18.5324 27.7175 17.7614 27.7175C16.9905 27.7175 16.2511 27.4099 15.706 26.8648C15.1609 26.3197 14.8547 25.5804 14.8547 24.8095M20.6694 24.8095C20.6694 24.0384 20.3624 23.2996 19.8171 22.7544C19.2719 22.2092 18.5324 21.9028 17.7614 21.9028C16.9905 21.9028 16.2511 22.2091 15.706 22.7542C15.1609 23.2993 14.8547 24.0386 14.8547 24.8095M14.8547 24.8095H3.66669M28.3334 7.19085H24.1934M18.3787 7.19085H3.66669M18.3787 7.19085C18.3787 6.41995 18.6849 5.68063 19.23 5.13552C19.7751 4.59042 20.5145 4.28418 21.2854 4.28418C21.6671 4.28418 22.045 4.35936 22.3977 4.50544C22.7503 4.65151 23.0708 4.86561 23.3407 5.13552C23.6106 5.40543 23.8247 5.72586 23.9708 6.07851C24.1168 6.43117 24.192 6.80914 24.192 7.19085C24.192 7.57256 24.1168 7.95053 23.9708 8.30318C23.8247 8.65583 23.6106 8.97626 23.3407 9.24617C23.0708 9.51608 22.7503 9.73018 22.3977 9.87626C22.045 10.0223 21.6671 10.0975 21.2854 10.0975C20.5145 10.0975 19.7751 9.79128 19.23 9.24617C18.6849 8.70106 18.3787 7.96174 18.3787 7.19085Z" stroke="white" stroke-width="1.5" stroke-miterlimit="10" stroke-linecap="round"/>
</svg>
