<svg width="20" height="19" viewBox="0 0 20 19" fill="none" xmlns="http://www.w3.org/2000/svg">
<path d="M1.04989 18.87C1.25919 18.9564 1.48348 19.0005 1.70989 19C1.93318 19.0011 2.15443 18.9574 2.36054 18.8716C2.56666 18.7857 2.75346 18.6593 2.90989 18.5L5.40989 16H14.9999C16.326 16 17.5977 15.4732 18.5354 14.5355C19.4731 13.5979 19.9999 12.3261 19.9999 11V5C19.9999 3.67392 19.4731 2.40215 18.5354 1.46447C17.5977 0.526784 16.326 0 14.9999 0H4.99989C3.67381 0 2.40204 0.526784 1.46436 1.46447C0.526675 2.40215 -0.000108834 3.67392 -0.000108834 5V17.29C-0.00327884 17.6282 0.0950928 17.9596 0.282283 18.2412C0.469473 18.5229 0.73687 18.7419 1.04989 18.87ZM1.99989 5C1.99989 4.20435 2.31596 3.44129 2.87857 2.87868C3.44118 2.31607 4.20424 2 4.99989 2H14.9999C15.7955 2 16.5586 2.31607 17.1212 2.87868C17.6838 3.44129 17.9999 4.20435 17.9999 5V11C17.9999 11.7957 17.6838 12.5587 17.1212 13.1213C16.5586 13.6839 15.7955 14 14.9999 14H4.99989C4.86828 13.9992 4.73782 14.0245 4.61598 14.0742C4.49415 14.124 4.38333 14.1973 4.28989 14.29L1.99989 16.59V5Z" fill="#14B589"/>
</svg>
