<svg width="24" height="24" viewBox="0 0 24 24" fill="none" xmlns="http://www.w3.org/2000/svg">
<path d="M12 11.9998C12.5523 11.9998 13 11.552 13 10.9998C13 10.4475 12.5523 9.99976 12 9.99976C11.4477 9.99976 11 10.4475 11 10.9998C11 11.552 11.4477 11.9998 12 11.9998Z" fill="black"/>
<path d="M8 11.9998C8.55229 11.9998 9 11.552 9 10.9998C9 10.4475 8.55229 9.99976 8 9.99976C7.44772 9.99976 7 10.4475 7 10.9998C7 11.552 7.44772 11.9998 8 11.9998Z" fill="black"/>
<path d="M16 11.9998C16.5523 11.9998 17 11.552 17 10.9998C17 10.4475 16.5523 9.99976 16 9.99976C15.4477 9.99976 15 10.4475 15 10.9998C15 11.552 15.4477 11.9998 16 11.9998Z" fill="black"/>
<path d="M3.04995 21.87C3.25925 21.9564 3.48354 22.0005 3.70995 22C3.93324 22.0011 4.15449 21.9574 4.3606 21.8716C4.56672 21.7857 4.75352 21.6593 4.90995 21.5L7.40995 19H17C18.326 19 19.5978 18.4732 20.5355 17.5355C21.4732 16.5979 22 15.3261 22 14V8C22 6.67392 21.4732 5.40215 20.5355 4.46447C19.5978 3.52678 18.326 3 17 3H6.99995C5.67387 3 4.4021 3.52678 3.46442 4.46447C2.52674 5.40215 1.99995 6.67392 1.99995 8V20.29C1.99678 20.6282 2.09515 20.9596 2.28234 21.2412C2.46953 21.5229 2.73693 21.7419 3.04995 21.87ZM3.99995 8C3.99995 7.20435 4.31602 6.44129 4.87863 5.87868C5.44124 5.31607 6.2043 5 6.99995 5H17C17.7956 5 18.5587 5.31607 19.1213 5.87868C19.6839 6.44129 20 7.20435 20 8V14C20 14.7957 19.6839 15.5587 19.1213 16.1213C18.5587 16.6839 17.7956 17 17 17H6.99995C6.86835 16.9992 6.73788 17.0245 6.61605 17.0742C6.49421 17.124 6.38339 17.1973 6.28995 17.29L3.99995 19.59V8Z" fill="black"/>
</svg>
