<svg width="32" height="32" viewBox="0 0 32 32" fill="none" xmlns="http://www.w3.org/2000/svg">
<path d="M16.0001 15.9997C16.7365 15.9997 17.3334 15.4028 17.3334 14.6664C17.3334 13.93 16.7365 13.3331 16.0001 13.3331C15.2637 13.3331 14.6667 13.93 14.6667 14.6664C14.6667 15.4028 15.2637 15.9997 16.0001 15.9997Z" fill="white"/>
<path d="M10.6666 15.9997C11.403 15.9997 11.9999 15.4028 11.9999 14.6664C11.9999 13.93 11.403 13.3331 10.6666 13.3331C9.93021 13.3331 9.33325 13.93 9.33325 14.6664C9.33325 15.4028 9.93021 15.9997 10.6666 15.9997Z" fill="white"/>
<path d="M21.3333 15.9997C22.0697 15.9997 22.6667 15.4028 22.6667 14.6664C22.6667 13.93 22.0697 13.3331 21.3333 13.3331C20.597 13.3331 20 13.93 20 14.6664C20 15.4028 20.597 15.9997 21.3333 15.9997Z" fill="white"/>
<path d="M4.06648 29.16C4.34555 29.2751 4.6446 29.334 4.94648 29.3333C5.2442 29.3348 5.53919 29.2766 5.81401 29.1621C6.08883 29.0476 6.3379 28.8791 6.54648 28.6667L9.87981 25.3333H22.6665C24.4346 25.3333 26.1303 24.631 27.3805 23.3807C28.6308 22.1305 29.3331 20.4348 29.3331 18.6667V10.6667C29.3331 8.89856 28.6308 7.20286 27.3805 5.95262C26.1303 4.70238 24.4346 4 22.6665 4H9.33315C7.56504 4 5.86934 4.70238 4.6191 5.95262C3.36886 7.20286 2.66648 8.89856 2.66648 10.6667V27.0533C2.66225 27.5043 2.79342 27.9461 3.043 28.3216C3.29259 28.6972 3.64912 28.9893 4.06648 29.16ZM5.33315 10.6667C5.33315 9.6058 5.75458 8.58839 6.50472 7.83824C7.25487 7.08809 8.27228 6.66667 9.33315 6.66667H22.6665C23.7273 6.66667 24.7448 7.08809 25.4949 7.83824C26.2451 8.58839 26.6665 9.6058 26.6665 10.6667V18.6667C26.6665 19.7275 26.2451 20.7449 25.4949 21.4951C24.7448 22.2452 23.7273 22.6667 22.6665 22.6667H9.33315C9.15767 22.6657 8.98372 22.6993 8.82127 22.7656C8.65882 22.832 8.51107 22.9298 8.38648 23.0533L5.33315 26.12V10.6667Z" fill="white"/>
</svg>
