<svg width="36" height="37" viewBox="0 0 36 37" fill="none" xmlns="http://www.w3.org/2000/svg">
<path d="M18 30.5C14.65 30.5 11.8125 29.3375 9.4875 27.0125C7.1625 24.6875 6 21.85 6 18.5C6 15.15 7.1625 12.3125 9.4875 9.9875C11.8125 7.6625 14.65 6.50001 18 6.50001C19.725 6.50001 21.375 6.85601 22.95 7.568C24.525 8.28 25.875 9.299 27 10.625V8.00001C27 7.57501 27.144 7.21901 27.432 6.93201C27.72 6.64501 28.076 6.50101 28.5 6.50001C28.924 6.49901 29.2805 6.64301 29.5695 6.93201C29.8585 7.22101 30.002 7.57701 30 8.00001V15.5C30 15.925 29.856 16.2815 29.568 16.5695C29.28 16.8575 28.924 17.001 28.5 17H21C20.575 17 20.219 16.856 19.932 16.568C19.645 16.28 19.501 15.924 19.5 15.5C19.499 15.076 19.643 14.72 19.932 14.432C20.221 14.144 20.577 14 21 14H25.8C25 12.6 23.9065 11.5 22.5195 10.7C21.1325 9.9 19.626 9.5 18 9.5C15.5 9.5 13.375 10.375 11.625 12.125C9.875 13.875 9 16 9 18.5C9 21 9.875 23.125 11.625 24.875C13.375 26.625 15.5 27.5 18 27.5C19.7 27.5 21.2565 27.069 22.6695 26.207C24.0825 25.345 25.176 24.1885 25.95 22.7375C26.15 22.3875 26.4315 22.144 26.7945 22.007C27.1575 21.87 27.526 21.8635 27.9 21.9875C28.3 22.1125 28.5875 22.375 28.7625 22.775C28.9375 23.175 28.925 23.55 28.725 23.9C27.7 25.9 26.2375 27.5 24.3375 28.7C22.4375 29.9 20.325 30.5 18 30.5Z" fill="#FB6E71"/>
</svg>
