<svg width="32" height="32" viewBox="0 0 32 32" fill="none" xmlns="http://www.w3.org/2000/svg">
<path d="M11.8004 22.4334L16.0004 19.9001L20.2004 22.4667L19.1004 17.6667L22.8004 14.4667L17.9338 14.0334L16.0004 9.50006L14.0671 14.0001L9.20044 14.4334L12.9004 17.6667L11.8004 22.4334ZM16.0004 23.0334L10.4671 26.3667C10.2227 26.5223 9.96711 26.5889 9.70044 26.5667C9.43377 26.5445 9.20044 26.4556 9.00044 26.3001C8.80044 26.1445 8.64488 25.9503 8.53377 25.7174C8.42266 25.4845 8.40044 25.2232 8.4671 24.9334L9.93377 18.6334L5.03377 14.4001C4.81155 14.2001 4.67288 13.9721 4.61777 13.7161C4.56266 13.4601 4.57911 13.2103 4.66711 12.9667C4.75511 12.7232 4.88844 12.5232 5.06711 12.3667C5.24577 12.2103 5.49022 12.1103 5.80044 12.0667L12.2671 11.5001L14.7671 5.56672C14.8782 5.30006 15.0507 5.10006 15.2844 4.96672C15.5182 4.83339 15.7569 4.76672 16.0004 4.76672C16.244 4.76672 16.4827 4.83339 16.7164 4.96672C16.9502 5.10006 17.1227 5.30006 17.2338 5.56672L19.7338 11.5001L26.2004 12.0667C26.5115 12.1112 26.756 12.2112 26.9338 12.3667C27.1115 12.5223 27.2449 12.7223 27.3338 12.9667C27.4227 13.2112 27.4395 13.4614 27.3844 13.7174C27.3293 13.9734 27.1902 14.2009 26.9671 14.4001L22.0671 18.6334L23.5338 24.9334C23.6004 25.2223 23.5782 25.4836 23.4671 25.7174C23.356 25.9512 23.2004 26.1454 23.0004 26.3001C22.8004 26.4547 22.5671 26.5436 22.3004 26.5667C22.0338 26.5898 21.7782 26.5232 21.5338 26.3667L16.0004 23.0334Z" fill="white"/>
</svg>
