<svg width="30" height="29" viewBox="0 0 30 29" fill="none" xmlns="http://www.w3.org/2000/svg">
<path d="M9.74957 23.0417L14.9996 19.875L20.2496 23.0834L18.8746 17.0834L23.4996 13.0834L17.4162 12.5417L14.9996 6.87504L12.5829 12.5L6.49957 13.0417L11.1246 17.0834L9.74957 23.0417ZM14.9996 23.7917L8.0829 27.9584C7.77735 28.1528 7.4579 28.2361 7.12457 28.2084C6.79124 28.1806 6.49957 28.0695 6.24957 27.875C5.99957 27.6806 5.80513 27.4378 5.66624 27.1467C5.52735 26.8556 5.49957 26.5289 5.5829 26.1667L7.41624 18.2917L1.29124 13C1.01346 12.75 0.840127 12.465 0.771238 12.145C0.702349 11.825 0.722905 11.5128 0.832905 11.2084C0.942905 10.9039 1.10957 10.6539 1.3329 10.4584C1.55624 10.2628 1.86179 10.1378 2.24957 10.0834L10.3329 9.37504L13.4579 1.95837C13.5968 1.62504 13.8123 1.37504 14.1046 1.20837C14.3968 1.04171 14.6951 0.958374 14.9996 0.958374C15.304 0.958374 15.6023 1.04171 15.8946 1.20837C16.1868 1.37504 16.4023 1.62504 16.5412 1.95837L19.6662 9.37504L27.7496 10.0834C28.1385 10.1389 28.444 10.2639 28.6662 10.4584C28.8885 10.6528 29.0551 10.9028 29.1662 11.2084C29.2773 11.5139 29.2985 11.8267 29.2296 12.1467C29.1607 12.4667 28.9868 12.7512 28.7079 13L22.5829 18.2917L24.4162 26.1667C24.4996 26.5278 24.4718 26.8545 24.3329 27.1467C24.194 27.4389 23.9996 27.6817 23.7496 27.875C23.4996 28.0684 23.2079 28.1795 22.8746 28.2084C22.5412 28.2373 22.2218 28.1539 21.9162 27.9584L14.9996 23.7917Z" fill="#FF7006"/>
</svg>
