<svg width="60" height="61" viewBox="0 0 60 61" fill="none" xmlns="http://www.w3.org/2000/svg">
<path fill-rule="evenodd" clip-rule="evenodd" d="M21.1075 9.09288L26.9475 13.1929C27.8014 13.7931 28.8218 14.1109 29.8655 14.102C30.9092 14.093 31.924 13.7576 32.7675 13.1429L38.5325 8.93538L39.7625 15.9654C39.9431 16.9933 40.4409 17.9389 41.186 18.6697C41.9311 19.4005 42.8863 19.8798 43.9175 20.0404L50.9675 21.1454L46.8675 26.9879C46.2673 27.8418 45.9494 28.8622 45.9584 29.9059C45.9674 30.9496 46.3027 31.9644 46.9175 32.8079L51.125 38.5729L44.095 39.8029C43.067 39.9829 42.1211 40.4801 41.3898 41.2248C40.6586 41.9694 40.1788 42.9243 40.0175 43.9554L38.915 51.0054L33.0725 46.9054C32.2183 46.3056 31.1978 45.9881 30.1541 45.9975C29.1103 46.0069 28.0957 46.3428 27.2525 46.9579L21.4875 51.1654L20.2575 44.1354C20.0775 43.1074 19.5803 42.1614 18.8356 41.4302C18.0909 40.699 17.1361 40.2191 16.105 40.0579L9.055 38.9529L13.155 33.1129C13.7548 32.2587 14.0723 31.2382 14.0628 30.1945C14.0534 29.1507 13.7176 28.1361 13.1025 27.2929L8.895 21.5279L15.925 20.2954C16.9527 20.1155 17.8983 19.6187 18.6295 18.8745C19.3607 18.1303 19.8408 17.176 20.0025 16.1454L21.1075 9.09288ZM18.6375 8.70538C18.7032 8.28597 18.8747 7.89021 19.1357 7.5554C19.3967 7.22059 19.7386 6.95775 20.1293 6.79167C20.52 6.62559 20.9466 6.56173 21.3687 6.60612C21.7909 6.65051 22.1949 6.80168 22.5425 7.04538L28.385 11.1454C28.812 11.4455 29.3221 11.6044 29.844 11.5999C30.3659 11.5954 30.8732 11.4278 31.295 11.1204L37.06 6.91538C37.403 6.6653 37.8041 6.50669 38.2254 6.45451C38.6467 6.40232 39.0744 6.45828 39.468 6.61711C39.8617 6.77594 40.2085 7.0324 40.4756 7.36232C40.7428 7.69225 40.9215 8.08476 40.995 8.50288L42.225 15.5329C42.3148 16.0473 42.5635 16.5207 42.9361 16.8865C43.3087 17.2524 43.7865 17.4924 44.3025 17.5729L51.3525 18.6754C51.7723 18.7409 52.1685 18.9123 52.5037 19.1735C52.8388 19.4346 53.1019 19.7769 53.268 20.168C53.4341 20.559 53.4979 20.986 53.4532 21.4085C53.4085 21.8311 53.2568 22.2352 53.0125 22.5829L48.9125 28.4229C48.6124 28.8498 48.4535 29.36 48.4579 29.8819C48.4624 30.4037 48.6301 30.9111 48.9375 31.3329L53.145 37.1004C53.3951 37.4434 53.5537 37.8445 53.6059 38.2658C53.6581 38.6871 53.6021 39.1147 53.4433 39.5084C53.2844 39.9021 53.028 40.2489 52.6981 40.516C52.3681 40.7832 51.9756 40.9619 51.5575 41.0354L44.5275 42.2654C44.0134 42.3551 43.5403 42.6034 43.1745 42.9755C42.8087 43.3476 42.5684 43.8249 42.4875 44.3404L41.385 51.3929C41.3195 51.8127 41.1481 52.2089 40.8869 52.544C40.6257 52.8792 40.2835 53.1423 39.8924 53.3084C39.5013 53.4745 39.0744 53.5383 38.6518 53.4935C38.2293 53.4488 37.8251 53.2972 37.4775 53.0529L31.6375 48.9529C31.2105 48.6528 30.7003 48.4938 30.1785 48.4983C29.6566 48.5028 29.1492 48.6705 28.7275 48.9779L22.96 53.1854C22.6168 53.4355 22.2155 53.594 21.7941 53.6461C21.3726 53.6981 20.9448 53.642 20.5511 53.4829C20.1573 53.3238 19.8106 53.067 19.5436 52.7367C19.2766 52.4065 19.0981 52.0137 19.025 51.5954L17.795 44.5654C17.7053 44.0513 17.457 43.5782 17.0849 43.2124C16.7128 42.8465 16.2355 42.6063 15.72 42.5254L8.6675 41.4254C8.24768 41.3599 7.85149 41.1884 7.51634 40.9273C7.18118 40.6661 6.91812 40.3238 6.75198 39.9328C6.58585 39.5417 6.52212 39.1148 6.56683 38.6922C6.61154 38.2697 6.7632 37.8655 7.0075 37.5179L11.1075 31.6754C11.4076 31.2484 11.5665 30.7382 11.562 30.2164C11.5576 29.6945 11.3899 29.1871 11.0825 28.7654L6.875 23.0004C6.62489 22.6572 6.46634 22.2559 6.41429 21.8344C6.36225 21.413 6.41842 20.9852 6.57752 20.5914C6.73662 20.1977 6.99339 19.851 7.32363 19.584C7.65386 19.317 8.04667 19.1385 8.465 19.0654L15.495 17.8329C16.0086 17.7427 16.4811 17.4942 16.8465 17.1221C17.2118 16.75 17.4517 16.273 17.5325 15.7579L18.6375 8.70538ZM40 30.0454C40 32.6975 38.9464 35.2411 37.0711 37.1164C35.1957 38.9918 32.6522 40.0454 30 40.0454C27.3478 40.0454 24.8043 38.9918 22.9289 37.1164C21.0536 35.2411 20 32.6975 20 30.0454C20 27.3932 21.0536 24.8497 22.9289 22.9743C24.8043 21.0989 27.3478 20.0454 30 20.0454C32.6522 20.0454 35.1957 21.0989 37.0711 22.9743C38.9464 24.8497 40 27.3932 40 30.0454ZM42.5 30.0454C42.5 33.3606 41.183 36.54 38.8388 38.8842C36.4946 41.2284 33.3152 42.5454 30 42.5454C26.6848 42.5454 23.5054 41.2284 21.1612 38.8842C18.817 36.54 17.5 33.3606 17.5 30.0454C17.5 26.7302 18.817 23.5507 21.1612 21.2065C23.5054 18.8623 26.6848 17.5454 30 17.5454C33.3152 17.5454 36.4946 18.8623 38.8388 21.2065C41.183 23.5507 42.5 26.7302 42.5 30.0454Z" fill="#A11363"/>
</svg>
