<svg width="32" height="33" viewBox="0 0 32 33" fill="none" xmlns="http://www.w3.org/2000/svg">
<path d="M9.3335 28.1421C8.60017 28.1421 7.97261 27.8812 7.45083 27.3594C6.92906 26.8377 6.66772 26.2097 6.66683 25.4754V8.1421C6.28906 8.1421 5.97261 8.0141 5.7175 7.7581C5.46239 7.5021 5.33439 7.18566 5.3335 6.80877C5.33261 6.43188 5.46061 6.11544 5.7175 5.85944C5.97439 5.60344 6.29083 5.47544 6.66683 5.47544H12.0002C12.0002 5.09766 12.1282 4.78122 12.3842 4.52611C12.6402 4.27099 12.9566 4.14299 13.3335 4.14211H18.6668C19.0446 4.14211 19.3615 4.27011 19.6175 4.52611C19.8735 4.78211 20.0011 5.09855 20.0002 5.47544H25.3335C25.7113 5.47544 26.0282 5.60344 26.2842 5.85944C26.5402 6.11544 26.6677 6.43188 26.6668 6.80877C26.6659 7.18566 26.5379 7.50255 26.2828 7.75944C26.0277 8.01633 25.7113 8.14388 25.3335 8.1421V25.4754C25.3335 26.2088 25.0726 26.8368 24.5508 27.3594C24.0291 27.8821 23.4011 28.143 22.6668 28.1421H9.3335ZM22.6668 8.1421H9.3335V25.4754H22.6668V8.1421ZM13.3335 22.8088C13.7113 22.8088 14.0282 22.6808 14.2842 22.4248C14.5402 22.1688 14.6677 21.8523 14.6668 21.4754V12.1421C14.6668 11.7643 14.5388 11.4479 14.2828 11.1928C14.0268 10.9377 13.7104 10.8097 13.3335 10.8088C12.9566 10.8079 12.6402 10.9359 12.3842 11.1928C12.1282 11.4497 12.0002 11.7661 12.0002 12.1421V21.4754C12.0002 21.8532 12.1282 22.1701 12.3842 22.4261C12.6402 22.6821 12.9566 22.8097 13.3335 22.8088ZM18.6668 22.8088C19.0446 22.8088 19.3615 22.6808 19.6175 22.4248C19.8735 22.1688 20.0011 21.8523 20.0002 21.4754V12.1421C20.0002 11.7643 19.8722 11.4479 19.6162 11.1928C19.3602 10.9377 19.0437 10.8097 18.6668 10.8088C18.2899 10.8079 17.9735 10.9359 17.7175 11.1928C17.4615 11.4497 17.3335 11.7661 17.3335 12.1421V21.4754C17.3335 21.8532 17.4615 22.1701 17.7175 22.4261C17.9735 22.6821 18.2899 22.8097 18.6668 22.8088Z" fill="#F24144"/>
</svg>
