<svg width="85" height="86" viewBox="0 0 85 86" fill="none" xmlns="http://www.w3.org/2000/svg">
<ellipse cx="42.1865" cy="43" rx="42.1554" ry="42.5" fill="#00B074" fill-opacity="0.15"/>
<path d="M41.7446 24.4521C41.1509 24.4521 40.6844 23.9818 40.6844 23.3832V20.6896C40.6844 17.7822 38.3519 15.4306 35.5105 15.4306C34.111 15.4306 32.8388 15.9865 31.8209 16.9698C30.8031 17.9532 30.2942 19.2786 30.2942 20.6896V23.3832C30.2942 23.9818 29.8277 24.4521 29.234 24.4521C28.6403 24.4521 28.1738 23.9818 28.1738 23.3832V20.6896C28.1738 18.7228 28.9371 16.8843 30.2942 15.4734C31.6937 14.0624 33.5173 13.2928 35.4681 13.2928C39.497 13.2928 42.7625 16.585 42.7625 20.6468V23.3404C42.8049 23.9818 42.3384 24.4521 41.7446 24.4521Z" fill="#FFD497"/>
<path d="M58.4113 60.4952H27.4951L22.3636 20.5614H56.2484L58.4113 60.4952Z" fill="#00B074"/>
<path d="M27.4949 60.4952L20.1582 59.2125L12.779 60.4952L14.9843 20.5614H25.2896L27.4949 60.4952Z" fill="#0A5239"/>
<path d="M40.9386 34.3286C36.9098 34.3286 33.6443 31.0365 33.6443 26.9747V24.2811C33.6443 23.6825 34.1108 23.2122 34.7045 23.2122C35.2982 23.2122 35.7647 23.6825 35.7647 24.2811V26.9747C35.7647 29.8821 38.0972 32.1909 40.9386 32.1909C43.78 32.1909 46.1549 29.8393 46.1549 26.9319V24.2383C46.1549 23.6397 46.6214 23.1694 47.2152 23.1694C47.8089 23.1694 48.2754 23.6397 48.2754 24.2383V26.9319C48.2754 31.0365 45.0099 34.3286 40.9386 34.3286Z" fill="white"/>
<path opacity="0.1" d="M42.8473 55.0224C42.8473 56.9892 43.3562 58.8704 44.2468 60.4951H58.4538L57.5632 44.0769C56.503 43.7349 55.4003 43.5639 54.2553 43.5639C47.9364 43.5639 42.8473 48.6946 42.8473 55.0224Z" fill="#0C1E5B"/>
<path d="M60.15 66.4809C66.4271 66.4809 71.5156 61.3508 71.5156 55.0224C71.5156 48.694 66.4271 43.5639 60.15 43.5639C53.873 43.5639 48.7844 48.694 48.7844 55.0224C48.7844 61.3508 53.873 66.4809 60.15 66.4809Z" fill="#FF6966"/>
<path d="M58.9625 59.4691C58.6233 59.4691 58.3264 59.3409 58.0719 59.0843L54.4672 55.4501C53.9583 54.937 53.9583 54.1247 54.4672 53.6544C54.9761 53.1413 55.7818 53.1413 56.2483 53.6544L58.9625 56.3907L64.0516 51.26C64.5605 50.747 65.3663 50.747 65.8328 51.26C66.3417 51.7731 66.3417 52.5855 65.8328 53.0558L59.8531 59.0843C59.5987 59.3409 59.2594 59.4691 58.9625 59.4691Z" fill="white"/>
</svg>
