<svg width="8" height="9" viewBox="0 0 8 9" fill="none" xmlns="http://www.w3.org/2000/svg">
<path d="M1.05349 5.50409L3.11232 7.56291C3.22263 7.67319 3.37222 7.73514 3.5282 7.73514C3.68418 7.73514 3.83377 7.67319 3.94408 7.56291L6.00291 5.50409C6.11006 5.39314 6.16935 5.24455 6.16801 5.09032C6.16667 4.93609 6.1048 4.78855 5.99574 4.67949C5.88668 4.57042 5.73914 4.50856 5.58491 4.50722C5.43067 4.50588 5.28208 4.56517 5.17114 4.67232L4.11643 5.72703L4.11644 1.85291C4.11644 1.6969 4.05446 1.54728 3.94415 1.43697C3.83383 1.32665 3.68421 1.26467 3.5282 1.26467C3.37219 1.26467 3.22257 1.32665 3.11225 1.43697C3.00194 1.54728 2.93996 1.6969 2.93996 1.85291L2.93996 5.72703L1.88526 4.67232C1.77432 4.56517 1.62573 4.50588 1.47149 4.50722C1.31726 4.50856 1.16972 4.57042 1.06066 4.67949C0.951596 4.78855 0.889732 4.93609 0.888392 5.09032C0.887051 5.24455 0.946342 5.39314 1.05349 5.50409Z" fill="#F24144"/>
</svg>
