<svg width="85" height="86" viewBox="0 0 85 86" fill="none" xmlns="http://www.w3.org/2000/svg">
<ellipse cx="42.6864" cy="43" rx="42.1554" ry="42.5" fill="#D2F9E7"/>
<path d="M36.5042 20.3311L13.1875 29.9495L36.5042 39.5679L59.8209 29.9495L36.5042 20.3311Z" fill="#00B074"/>
<path d="M27.0403 24.2553L22.6517 26.0251L45.9685 35.6819L50.3189 33.8737L27.0403 24.2553Z" fill="#F7C604"/>
<path d="M13.1875 29.9496V56.4578L36.5042 66.0762V39.5679L13.1875 29.9496Z" fill="#0A5239"/>
<path d="M59.8209 29.9496V56.4578L36.5042 66.0762V39.5679L59.8209 29.9496Z" fill="#00D68D"/>
<path opacity="0.1" d="M59.8208 43.4922C59.1339 43.3383 58.447 43.2614 57.7219 43.2614C52.074 43.2614 47.4946 47.8782 47.4946 53.5723C47.4946 56.2269 48.4868 58.6508 50.1278 60.459L59.8208 56.4578V43.4922Z" fill="#0C1E5B"/>
<path d="M45.9683 35.682V46.8008L50.3187 44.9926V33.8737L45.9683 35.682Z" fill="#F7C604"/>
<path d="M61.8816 63.1137C67.53 63.1137 72.1089 58.4973 72.1089 52.8028C72.1089 47.1082 67.53 42.4919 61.8816 42.4919C56.2332 42.4919 51.6543 47.1082 51.6543 52.8028C51.6543 58.4973 56.2332 63.1137 61.8816 63.1137Z" fill="#FF5B5B"/>
<path d="M60.8133 56.804C60.508 56.804 60.2408 56.6886 60.0119 56.4577L56.7681 53.1875C56.3102 52.7258 56.3102 51.9948 56.7681 51.5716C57.2261 51.1099 57.9511 51.1099 58.3709 51.5716L60.8133 54.0339L65.3927 49.4171C65.8506 48.9554 66.5757 48.9554 66.9954 49.4171C67.4534 49.8788 67.4534 50.6098 66.9954 51.033L61.6147 56.4577C61.3857 56.6886 61.1186 56.804 60.8133 56.804Z" fill="white"/>
<path d="M20.7434 52.8798L18.2248 47.6474L15.8588 50.7637L17.1563 51.3408V54.7265L19.2551 55.6883V52.2642L20.7434 52.8798Z" fill="#F2F5F3"/>
</svg>
