<svg width="86" height="86" viewBox="0 0 86 86" fill="none" xmlns="http://www.w3.org/2000/svg">
<ellipse cx="43" cy="43" rx="42.1554" ry="42.5" fill="#00B074" fill-opacity="0.15"/>
<path d="M19.4965 64.7747C22.6633 64.7747 25.2509 62.1627 25.2509 58.966V21.541H58.8507V58.966C58.8507 62.1627 56.2631 64.7747 53.0962 64.7747" fill="#00B074"/>
<path d="M47.3418 58.9659V54.5606H13.7421V58.9659C13.7421 62.1626 16.3296 64.7745 19.4965 64.7745H53.0963C49.9294 64.7745 47.3418 62.1626 47.3418 58.9659Z" fill="#0A5239"/>
<path d="M35.5627 28.9868H31.2758V30.8581H35.5627V28.9868Z" fill="#F7C604"/>
<path d="M52.0535 28.9868H38.8839V30.8581H52.0535V28.9868Z" fill="#F3F2F7"/>
<path d="M35.5627 35.6142H31.2758V37.4854H35.5627V35.6142Z" fill="#F7C604"/>
<path d="M52.0535 35.6142H38.8839V37.4854H52.0535V35.6142Z" fill="#F3F2F7"/>
<path d="M35.5627 42.2417H31.2758V44.1129H35.5627V42.2417Z" fill="#F7C604"/>
<path d="M52.0535 42.2417H38.8839V44.1129H52.0535V42.2417Z" fill="#F3F2F7"/>
<path d="M35.5627 48.869H31.2758V50.7403H35.5627V48.869Z" fill="#F7C604"/>
<path d="M52.0535 48.869H38.8839V50.7403H52.0535V48.869Z" fill="#F3F2F7"/>
<path opacity="0.1" d="M58.8508 49.181V26.9209C58.3873 26.8429 57.8852 26.8039 57.3832 26.8039C51.2425 26.8039 46.2605 31.8329 46.2605 38.0314C46.2605 44.23 51.2425 49.2589 57.3832 49.2589C57.8852 49.2979 58.3873 49.2589 58.8508 49.181Z" fill="#0C1E5B"/>
<path d="M61.2845 47.037C67.4274 47.037 72.4073 42.0103 72.4073 35.8094C72.4073 29.6086 67.4274 24.5818 61.2845 24.5818C55.1415 24.5818 50.1617 29.6086 50.1617 35.8094C50.1617 42.0103 55.1415 47.037 61.2845 47.037Z" fill="#FF5B5B"/>
<path d="M65.651 31.2308L56.5714 40.3846M56.5714 31.2308L65.651 40.3846" stroke="white" stroke-width="4"/>
<path d="M65.651 31.2308L56.5714 40.3846M56.5714 31.2308L65.651 40.3846" stroke="white" stroke-width="4"/>
</svg>
