<svg width="8" height="8" viewBox="0 0 8 8" fill="none" xmlns="http://www.w3.org/2000/svg">
<g clip-path="url(#clip0_894_154)">
<path d="M1.5765 3.82766C1.68681 3.93793 1.83641 3.99989 1.99239 3.99989C2.14836 3.99989 2.29796 3.93793 2.40827 3.82766L3.46297 2.77295L3.46297 6.64707C3.46297 6.80308 3.52495 6.9527 3.63526 7.06302C3.74558 7.17333 3.8952 7.23531 4.05121 7.23531C4.20722 7.23531 4.35684 7.17333 4.46715 7.06302C4.57747 6.9527 4.63944 6.80308 4.63944 6.64707L4.63945 2.77295L5.69415 3.82766C5.80509 3.93481 5.95368 3.9941 6.10792 3.99276C6.26215 3.99142 6.40969 3.92956 6.51875 3.82049C6.62781 3.71143 6.68968 3.56389 6.69102 3.40966C6.69236 3.25543 6.63307 3.10684 6.52592 2.99589L4.46709 0.93707C4.35678 0.826793 4.20719 0.764842 4.05121 0.764842C3.89523 0.764842 3.74564 0.826792 3.63533 0.93707L1.5765 2.99589C1.46623 3.1062 1.40428 3.2558 1.40428 3.41178C1.40428 3.56775 1.46623 3.71735 1.5765 3.82766Z" fill="#14B589"/>
</g>
<defs>
<clipPath id="clip0_894_154">
<rect width="7.05882" height="7.05882" fill="white" transform="translate(7.58069 7.5294) rotate(-180)"/>
</clipPath>
</defs>
</svg>
