<svg width="86" height="86" viewBox="0 0 86 86" fill="none" xmlns="http://www.w3.org/2000/svg">
<ellipse cx="42.8959" cy="43" rx="42.1554" ry="42.5" fill="#D2F9E7"/>
<path d="M19.3923 64.7747C22.5592 64.7747 25.1468 62.1627 25.1468 58.966V21.541H58.7466V58.966C58.7466 62.1627 56.159 64.7747 52.9921 64.7747" fill="#00B074"/>
<path d="M47.2377 58.9659V54.5606H13.6379V58.9659C13.6379 62.1626 16.2255 64.7745 19.3924 64.7745H52.9922C49.8253 64.7745 47.2377 62.1626 47.2377 58.9659Z" fill="#0A5239"/>
<path d="M35.4585 28.9868H31.1716V30.8581H35.4585V28.9868Z" fill="white"/>
<path d="M51.9494 28.9868H38.7798V30.8581H51.9494V28.9868Z" fill="#F7C604"/>
<path d="M35.4585 35.6142H31.1716V37.4854H35.4585V35.6142Z" fill="white"/>
<path d="M51.9494 35.6142H38.7798V37.4854H51.9494V35.6142Z" fill="#F7C604"/>
<path d="M35.4585 42.2417H31.1716V44.1129H35.4585V42.2417Z" fill="white"/>
<path d="M51.9494 42.2417H38.7798V44.1129H51.9494V42.2417Z" fill="#F7C604"/>
<path d="M35.4585 48.869H31.1716V50.7403H35.4585V48.869Z" fill="white"/>
<path d="M51.9494 48.869H38.7798V50.7403H51.9494V48.869Z" fill="#F7C604"/>
<path opacity="0.1" d="M58.7465 49.181V26.9209C58.2831 26.8429 57.781 26.8039 57.2789 26.8039C51.1383 26.8039 46.1562 31.8329 46.1562 38.0314C46.1562 44.23 51.1383 49.2589 57.2789 49.2589C57.781 49.2979 58.2831 49.2589 58.7465 49.181Z" fill="#0C1E5B"/>
<path d="M61.1804 47.037C67.3234 47.037 72.3032 42.0103 72.3032 35.8094C72.3032 29.6086 67.3234 24.5818 61.1804 24.5818C55.0375 24.5818 50.0576 29.6086 50.0576 35.8094C50.0576 42.0103 55.0375 47.037 61.1804 47.037Z" fill="#FF5B5B"/>
<path d="M63.1495 36.5889V29.6107H59.2102V36.5889H56.584L61.1798 42.0077L65.7756 36.5889H63.1495Z" fill="white"/>
</svg>
